<svg width="92" height="28" viewBox="0 0 92 28" fill="none" xmlns="http://www.w3.org/2000/svg">
<rect width="92" height="28" fill="#3F7F9F"/>
<path d="M15.3541 2L14.6981 12.0101L15.3541 22.3498H11L12.8491 12.0101L12.6619 2H15.3541Z" fill="#DDDDDD"/>
<path d="M18.9367 14.3208C18.9367 12.6664 19.272 11.226 19.9426 9.99979C20.6131 8.75408 21.5401 7.7906 22.7235 7.10936C23.9267 6.42811 25.2974 6.08748 26.8359 6.08748C28.8279 6.08748 30.465 6.56436 31.747 7.5181C33.0487 8.47185 34.6236 5.38677 35.0378 7.08016L27.6416 12.6184C27.3654 11.6451 30.603 9.74676 29.7944 9.18229C29.0054 8.61783 28.0193 8.3356 26.8359 8.3356C25.2974 8.3356 25.5065 9.53265 24.5598 10.5837C23.6131 11.6153 21.6881 12.4134 21.6881 14.3208C21.6881 16.2478 23.6131 16.9193 24.5598 17.9704C25.5065 19.0215 25.2974 20.3645 26.8359 20.3645C28.0193 20.3645 28.7017 19.2453 29.4906 18.7003C30.2796 18.1553 31.1257 18.2234 31.4215 17.2113L35.0378 13.1822C34.6039 14.8172 33.0191 20.1601 31.7174 21.1528C30.4156 22.126 28.7885 22.6126 26.8359 22.6126C25.2974 22.6126 23.9267 22.272 22.7235 21.5907C21.5401 20.9095 20.6131 19.946 19.9426 18.7003C19.272 17.4546 18.9367 15.9948 18.9367 14.3208Z" fill="#DDDDDD"/>
<path d="M52.7056 13.7369C52.7056 14.243 54.1707 18.0671 52.6169 15.3427C51.063 12.6184 39.6587 15.3427 39.6587 15.3427C39.7573 16.9193 40.2997 18.1553 41.2858 19.0507C42.2917 19.9265 43.5047 20.3645 44.9248 20.3645C46.0885 20.3645 47.0549 20.1017 47.8241 19.5762C48.613 19.0312 49.1653 18.311 49.4809 17.4157L51.063 21.5907C50.6291 23.1284 51.0785 20.2088 49.7767 21.182C48.475 22.1357 46.8577 22.6126 44.9248 22.6126C43.3864 22.6126 42.0057 22.272 40.7829 21.5907C39.5798 20.9095 38.633 19.946 37.9427 18.7003C37.2524 17.4351 36.9072 15.9753 36.9072 14.3208C36.9072 12.6664 37.2425 11.2163 37.9131 9.9706C38.5837 8.72489 39.5206 7.77114 40.7237 7.10936C41.9466 6.42811 43.3469 6.08748 44.9248 6.08748C46.4632 6.08748 47.8241 6.41838 49.0075 7.08016C50.1909 7.74194 51.0982 8.65676 51.7293 9.82461C52.3802 10.973 52.7056 12.2771 52.7056 13.7369ZM49.9246 13.1822C49.9246 12.1701 49.6978 11.3039 49.2442 10.5837C48.7906 9.84408 48.1693 9.28935 47.3803 8.91953C46.6111 8.53024 45.7532 8.3356 44.8064 8.3356C43.4455 8.3356 42.2819 8.76381 41.3154 9.62024C40.3687 10.4767 39.8263 11.664 39.6882 13.1822H49.9246Z" fill="#DDDDDD"/>
<path d="M59.5432 8.53998C57.9752 8.3356 62.2355 18.5251 59.5432 17.9704C56.851 17.4157 59.7109 19.3037 60.0462 19.6346C60.3815 19.946 60.9633 20.1017 61.7917 20.1017H63.7739V22.3498H61.3479C59.849 22.3498 58.7247 22.0092 57.9752 21.328C57.2258 20.6467 56.851 19.5275 56.851 17.9704V8.53998H54.7505V6.35025H56.851V2.32116L59.0756 3.49451L59.5432 6.35025H63.7739V8.53998C63.7739 8.53998 61.1113 8.74435 59.5432 8.53998Z" fill="#DDDDDD"/>
<path d="M81 6.35025L76.1185 18.1164L74.2266 22.0582L72.3347 26H69.5537C69.5537 26 74.8485 19.6346 71.6511 22.1747C68.4538 24.7147 65.1129 6.35025 65.1129 6.35025L67.7046 7.08016L73.1896 19.3134L76.9499 6.08748L81 6.35025Z" fill="#DDDDDD"/>
</svg>
